<svg width="45" height="31" viewBox="0 0 45 31" fill="none" xmlns="http://www.w3.org/2000/svg">
<path fill-rule="evenodd" clip-rule="evenodd" d="M41.7855 11.7855L41.7511 11.7856H3.21427V27.3213H41.7855V11.7855ZM44.9997 5.54063V2.14284C44.9997 0.959384 44.0403 0 42.8569 0H2.14284C0.959384 0 0 0.959386 0 2.14285V8.57138V10.1785V11.7856V28.3927C0 29.5761 0.959384 30.5355 2.14284 30.5355H42.8569C44.0403 30.5355 44.9997 29.5761 44.9997 28.3927V9.90961V7.26217V5.84697V5.54063ZM6.96387 21.9642C6.96387 21.3725 7.44356 20.8928 8.03529 20.8928H10.1781C10.7699 20.8928 11.2496 21.3725 11.2496 21.9642V24.1071C11.2496 24.6988 10.7699 25.1785 10.1781 25.1785H8.03529C7.44356 25.1785 6.96387 24.6988 6.96387 24.1071V21.9642Z" fill="#2E5AF0"/>
</svg>
