<svg width="28" height="26" viewBox="0 0 28 26" fill="none" xmlns="http://www.w3.org/2000/svg">
<path fill-rule="evenodd" clip-rule="evenodd" d="M0 1.40595C0 1.96157 0.450421 2.41199 1.00604 2.41199H2.41378L2.85654 4.40303L4.76677 14.2188C4.76808 14.2254 4.76944 14.232 4.77084 14.2385L5.57166 17.9377C5.67286 18.4053 6.10578 18.7409 6.60781 18.7409H22.6421C23.1977 18.7409 23.6482 18.2905 23.6482 17.7348C23.6482 17.1792 23.1977 16.7288 22.6421 16.7288H7.47012L7.1049 15.0417H23.6482C24.1179 15.0417 24.5314 14.7472 24.6634 14.3185L27.6907 4.4902C27.7843 4.1861 27.7218 3.85782 27.5221 3.60423C27.3223 3.35063 27.0086 3.20135 26.6754 3.20135H4.7519L4.30637 1.1978C4.20293 0.73268 3.77127 0.399902 3.27136 0.399902H1.00605C0.450422 0.399902 0 0.850324 0 1.40595ZM6.68711 13.0296L5.16598 5.21344H25.2632L22.8557 13.0296H6.68711ZM11.2463 22.827C11.2463 23.5535 10.6269 24.1426 9.8629 24.1426C9.09886 24.1426 8.47949 23.5535 8.47949 22.827C8.47949 22.1004 9.09886 21.5114 9.8629 21.5114C10.6269 21.5114 11.2463 22.1004 11.2463 22.827ZM21.7277 22.827C21.7277 23.5535 21.1083 24.1426 20.3443 24.1426C19.5802 24.1426 18.9608 23.5535 18.9608 22.827C18.9608 22.1004 19.5802 21.5114 20.3443 21.5114C21.1083 21.5114 21.7277 22.1004 21.7277 22.827ZM13.1994 22.827C13.1994 24.5793 11.7056 25.9999 9.8629 25.9999C8.02023 25.9999 6.52644 24.5793 6.52644 22.827C6.52644 21.0746 8.02023 19.6541 9.8629 19.6541C11.7056 19.6541 13.1994 21.0746 13.1994 22.827ZM23.6807 22.827C23.6807 24.5793 22.1869 25.9999 20.3443 25.9999C18.5016 25.9999 17.0078 24.5793 17.0078 22.827C17.0078 21.0746 18.5016 19.6541 20.3443 19.6541C22.1869 19.6541 23.6807 21.0746 23.6807 22.827Z" fill="black"/>
</svg>
