<svg width="28" height="26" viewBox="0 0 28 26" fill="none" xmlns="http://www.w3.org/2000/svg">
<path fill-rule="evenodd" clip-rule="evenodd" d="M0 1.00604C0 1.56167 0.450421 2.01209 1.00604 2.01209H2.41378L2.85654 4.00313L4.76677 13.8188C4.76808 13.8255 4.76944 13.8321 4.77084 13.8386L5.57166 17.5378C5.67286 18.0054 6.10578 18.341 6.60781 18.341H22.6421C23.1977 18.341 23.6482 17.8906 23.6482 17.3349C23.6482 16.7793 23.1977 16.3289 22.6421 16.3289H7.47012L7.1049 14.6418H23.6482C24.1179 14.6418 24.5314 14.3473 24.6634 13.9186L27.6907 4.0903C27.7843 3.7862 27.7218 3.45792 27.5221 3.20433C27.3223 2.95073 27.0086 2.80145 26.6754 2.80145H4.7519L4.30637 0.797896C4.20293 0.332778 3.77127 0 3.27136 0H1.00605C0.450422 0 0 0.450422 0 1.00604ZM6.68711 12.6297L5.16598 4.81354H25.2632L22.8557 12.6297H6.68711ZM11.2463 22.4271C11.2463 23.1536 10.6269 23.7427 9.8629 23.7427C9.09886 23.7427 8.47949 23.1536 8.47949 22.4271C8.47949 21.7005 9.09886 21.1115 9.8629 21.1115C10.6269 21.1115 11.2463 21.7005 11.2463 22.4271ZM21.7277 22.4271C21.7277 23.1536 21.1083 23.7427 20.3443 23.7427C19.5802 23.7427 18.9608 23.1536 18.9608 22.4271C18.9608 21.7005 19.5802 21.1115 20.3443 21.1115C21.1083 21.1115 21.7277 21.7005 21.7277 22.4271ZM13.1994 22.4271C13.1994 24.1794 11.7056 25.6 9.8629 25.6C8.02023 25.6 6.52644 24.1794 6.52644 22.4271C6.52644 20.6747 8.02023 19.2542 9.8629 19.2542C11.7056 19.2542 13.1994 20.6747 13.1994 22.4271ZM23.6807 22.4271C23.6807 24.1794 22.1869 25.6 20.3443 25.6C18.5016 25.6 17.0078 24.1794 17.0078 22.4271C17.0078 20.6747 18.5016 19.2542 20.3443 19.2542C22.1869 19.2542 23.6807 20.6747 23.6807 22.4271Z" fill="white"/>
</svg>
