<svg width="15" height="16" viewBox="0 0 15 16" fill="none" xmlns="http://www.w3.org/2000/svg">
<path d="M1 8C1 8.85359 1.16813 9.69883 1.49478 10.4874C1.82144 11.2761 2.30022 11.9926 2.90381 12.5962C3.50739 13.1998 4.22394 13.6786 5.01256 14.0052C5.80117 14.3319 6.64641 14.5 7.5 14.5C8.35359 14.5 9.19883 14.3319 9.98744 14.0052C10.7761 13.6786 11.4926 13.1998 12.0962 12.5962C12.6998 11.9926 13.1786 11.2761 13.5052 10.4874C13.8319 9.69883 14 8.85359 14 8C14 6.27609 13.3152 4.62279 12.0962 3.40381C10.8772 2.18482 9.22391 1.5 7.5 1.5C5.77609 1.5 4.12279 2.18482 2.90381 3.40381C1.68482 4.62279 1 6.27609 1 8Z" stroke="#DDB836" stroke-width="1.33333" stroke-linecap="round" stroke-linejoin="round"/>
<path d="M7.5 4.38892V8.00003L9.66667 10.1667" stroke="#DDB836" stroke-width="1.33333" stroke-linecap="round" stroke-linejoin="round"/>
</svg>
