<svg width="14" height="17" viewBox="0 0 14 17" fill="none" xmlns="http://www.w3.org/2000/svg">
<path d="M2.912 7.565L3.682 15.045C3.68924 15.1149 3.72297 15.1798 3.77666 15.2269C3.83034 15.274 3.90014 15.3001 3.9725 15.3H10.0275C10.0999 15.3001 10.1697 15.274 10.2233 15.2269C10.277 15.1798 10.3108 15.1149 10.318 15.045L11.088 7.565C11.1169 7.34545 11.2329 7.14551 11.4112 7.00772C11.5442 6.90492 11.7041 6.84275 11.8709 6.82694L2.29705 6.8163C2.40864 6.84969 2.51222 6.90445 2.60169 6.97733C2.69116 7.05022 2.76471 7.13976 2.81801 7.24069C2.8713 7.34162 2.90326 7.45189 2.912 7.565Z" fill="black" fill-opacity="0.5"/>
<path fill-rule="evenodd" clip-rule="evenodd" d="M3.682 15.045L2.912 7.565C2.90326 7.45189 2.8713 7.34162 2.81801 7.24069C2.76471 7.13976 2.69116 7.05022 2.60169 6.97733C2.51222 6.90445 2.40864 6.84969 2.29705 6.8163C2.18545 6.78291 2.06811 6.77155 1.95193 6.7829C1.83575 6.79424 1.72308 6.82807 1.62056 6.88237C1.51804 6.93667 1.42775 7.01036 1.35501 7.09909C1.28226 7.18782 1.22853 7.28979 1.19699 7.39901C1.16544 7.50822 1.15672 7.62246 1.17133 7.735L1.94133 15.215C1.99194 15.7042 2.22777 16.1576 2.60308 16.4875C2.97838 16.8173 3.46641 16.9999 3.9725 17H10.0275C10.5339 17.0004 11.0224 16.8178 11.3978 16.4876C11.7733 16.1575 12.0088 15.7034 12.0587 15.2139L12.8287 7.73387C12.845 7.51309 12.772 7.29483 12.6253 7.1255C12.4786 6.95617 12.2696 6.84912 12.0429 6.82713C11.9853 6.82154 11.9277 6.82155 11.8709 6.82694C11.7041 6.84275 11.5442 6.90492 11.4112 7.00772C11.2329 7.14551 11.1169 7.34545 11.088 7.565L10.318 15.045C10.3108 15.1149 10.277 15.1798 10.2233 15.2269C10.1697 15.274 10.0999 15.3001 10.0275 15.3H3.9725C3.90014 15.3001 3.83034 15.274 3.77666 15.2269C3.72297 15.1798 3.68924 15.1149 3.682 15.045Z" fill="black" fill-opacity="0.5"/>
<path fill-rule="evenodd" clip-rule="evenodd" d="M10.5 1.98333V3.4H13.125C13.3571 3.4 13.5796 3.48955 13.7437 3.64896C13.9078 3.80837 14 4.02457 14 4.25C14 4.47543 13.9078 4.69164 13.7437 4.85104C13.5796 5.01045 13.3571 5.1 13.125 5.1H0.875C0.642936 5.1 0.420376 5.01045 0.256281 4.85104C0.0921871 4.69164 0 4.47543 0 4.25C0 4.02457 0.0921871 3.80837 0.256281 3.64896C0.420376 3.48955 0.642936 3.4 0.875 3.4H3.5V1.98333C3.5 0.888533 4.41467 0 5.54167 0H8.45833C9.58533 0 10.5 0.888533 10.5 1.98333ZM5.25 3.4V1.98333C5.25 1.90819 5.28073 1.83612 5.33543 1.78299C5.39012 1.72985 5.46431 1.7 5.54167 1.7H8.45833C8.53569 1.7 8.60987 1.72985 8.66457 1.78299C8.71927 1.83612 8.75 1.90819 8.75 1.98333V3.4H5.25Z" fill="black" fill-opacity="0.5"/>
</svg>
