<svg width="22" height="20" viewBox="0 0 22 20" fill="none" xmlns="http://www.w3.org/2000/svg">
<path d="M21 2.75848C21 2.14302 21 1.83528 20.8625 1.60008C20.7431 1.39337 20.5523 1.22523 20.3175 1.1198C20.05 1 19.7 1 19 1H3C2.3 1 1.95 1 1.6825 1.1198C1.44731 1.22517 1.25609 1.39329 1.13625 1.60008C1 1.83528 1 2.14302 1 2.75848V3.56849C1 3.83775 1 3.97184 1.035 4.09823C1.06561 4.21075 1.11623 4.31832 1.185 4.41696C1.26125 4.52686 1.37 4.62248 1.585 4.81261L7.91375 10.376C8.13 10.5662 8.23875 10.6618 8.315 10.7717C8.38375 10.8706 8.435 10.9783 8.465 11.0904C8.5 11.2157 8.5 11.3487 8.5 11.6114V16.8385C8.5 17.7803 8.5 18.2518 8.725 18.5354C8.82262 18.658 8.9477 18.7618 9.09257 18.8405C9.23745 18.9191 9.39906 18.9708 9.5675 18.9926C9.95625 19.0432 10.4362 18.8332 11.3937 18.4112L12.3937 17.9716C12.7962 17.7957 12.9962 17.7078 13.1425 17.5759C13.2722 17.4594 13.3709 17.319 13.4312 17.1649C13.5 16.9912 13.5 16.7934 13.5 16.3988V11.6201C13.5 11.3509 13.5 11.2168 13.535 11.0904C13.5656 10.9779 13.6162 10.8703 13.685 10.7717C13.76 10.6618 13.8687 10.5673 14.0813 10.3804L14.0862 10.376L20.415 4.81261C20.63 4.62248 20.7375 4.52686 20.815 4.41696C20.8839 4.31837 20.9345 4.21079 20.965 4.09823C21 3.97404 21 3.83995 21 3.57728V2.75848Z" fill="#2E5AF0" stroke="#2E5AF0" stroke-width="2" stroke-linecap="round" stroke-linejoin="round"/>
</svg>
