<svg width="13" height="18" viewBox="0 0 13 18" fill="none" xmlns="http://www.w3.org/2000/svg">
<path d="M6.5 0C2.91571 0 0 2.97563 0 6.63032C0 9.86346 3.22214 14.7084 5.13129 17.2968C5.28949 17.5164 5.4959 17.6945 5.73374 17.8167C5.97158 17.9388 6.23414 18.0016 6.50007 18C6.76599 17.9983 7.02778 17.9322 7.26415 17.807C7.50051 17.6819 7.70479 17.5012 7.86036 17.2797C9.76393 14.6464 13 9.71468 13 6.63032C13 2.97563 10.0843 0 6.5 0ZM8.46114 8.57116C7.9398 9.10271 7.2346 9.40039 6.5 9.399C5.78964 9.399 5.07929 9.12241 4.53886 8.57211C3.45707 7.4696 3.45707 5.67469 4.53886 4.57122C5.06257 4.03713 5.759 3.74148 6.5 3.74148C6.86389 3.74039 7.22442 3.81304 7.56094 3.95526C7.89746 4.09747 8.20337 4.30646 8.46114 4.57027C9.54293 5.67373 9.54293 7.4677 8.46114 8.57116Z" fill="#2E5AF0"/>
</svg>
