<svg width="24" height="24" viewBox="0 0 24 24" fill="none" xmlns="http://www.w3.org/2000/svg">
<path d="M22.7149 12.3564L12.816 1.3484C12.3991 0.883866 11.5984 0.883866 11.1815 1.3484L1.28265 12.3564C1.14017 12.5145 1.04664 12.7105 1.01345 12.9208C0.980255 13.1311 1.00882 13.3465 1.09567 13.5408C1.27165 13.9382 1.66541 14.1936 2.09986 14.1936H4.29961V21.8992C4.29961 22.1912 4.41549 22.4711 4.62176 22.6776C4.82803 22.884 5.10779 23 5.39949 23H8.69912C8.99083 23 9.27059 22.884 9.47685 22.6776C9.68312 22.4711 9.799 22.1912 9.799 21.8992V17.496H14.1985V21.8992C14.1985 22.1912 14.3144 22.4711 14.5207 22.6776C14.7269 22.884 15.0067 23 15.2984 23H18.598C18.8897 23 19.1695 22.884 19.3757 22.6776C19.582 22.4711 19.6979 22.1912 19.6979 21.8992V14.1936H21.8976C22.1107 14.1945 22.3193 14.1334 22.4982 14.0176C22.6771 13.9019 22.8185 13.7366 22.9051 13.5418C22.9918 13.3471 23.0199 13.1313 22.9861 12.9208C22.9523 12.7103 22.8581 12.5142 22.7149 12.3564Z" stroke="black" stroke-width="2"/>
</svg>
