<svg width="143" height="45" viewBox="0 0 143 45" fill="none" xmlns="http://www.w3.org/2000/svg">
<path fill-rule="evenodd" clip-rule="evenodd" d="M0.000310787 23.1376L0.0279731 23.1376C11.7273 23.1376 24.0422 28.0576 24.5389 45L24.7256 45L24.7256 22.7473L0.000310819 22.7473L0.000310787 23.1376Z" fill="#2A292C"/>
<path fill-rule="evenodd" clip-rule="evenodd" d="M49.4509 22.3482L49.4232 22.3483C37.7239 22.3483 25.409 17.3189 24.9122 0L24.7256 0L24.7256 22.7473L49.4509 22.7473L49.4509 22.3482Z" fill="#2E5AF0"/>
<path d="M67.6175 39.4957L69.2375 42.7466C68.617 43.3827 67.6979 43.901 66.4801 44.3014C65.2852 44.7019 64.0329 44.9022 62.7232 44.9022C59.5981 44.9022 57.0935 44.0305 55.2093 42.2873C53.3481 40.5204 52.4175 38.1882 52.4175 35.2906C52.4175 32.5814 53.2906 30.3081 55.037 28.4706C56.8063 26.6331 59.3339 25.7144 62.6198 25.7144C65.2163 25.7144 67.2843 26.3504 68.8238 27.6225L66.9282 30.8735C65.4576 30.1432 64.0329 29.7781 62.6542 29.7781C60.9309 29.7781 59.5407 30.261 58.4837 31.2269C57.4267 32.1927 56.8982 33.5473 56.8982 35.2906C56.8982 36.9396 57.4612 38.2824 58.5871 39.319C59.713 40.332 61.2181 40.8385 63.1023 40.8385C64.8027 40.8385 66.3077 40.3909 67.6175 39.4957Z" fill="#2A292C"/>
<path d="M70.4379 30.0254V25.9617H87.1544V30.0254H80.8814V44.5135H76.6764V30.0254H70.4379Z" fill="#2A292C"/>
<path d="M85.9524 44.5135L94.3969 25.9264H98.1538L106.598 44.5135H102.083L100.394 40.6971H91.8808L90.1919 44.5135H85.9524ZM96.1547 30.9795L93.6386 36.6687H98.6363L96.1547 30.9795Z" fill="#2A292C"/>
<path d="M120.849 44.5135V30.0254H115.816L115.403 33.5238C115.15 35.9031 114.794 37.8702 114.334 39.425C113.875 40.9562 113.289 42.1224 112.576 42.9233C111.887 43.7243 111.117 44.2426 110.267 44.4781C109.417 44.6901 108.406 44.7019 107.234 44.5135L107.303 40.3437C107.694 40.4144 108.027 40.4144 108.302 40.3437C108.601 40.2731 108.934 40.0375 109.302 39.637C109.67 39.2365 109.98 38.6711 110.233 37.9408C110.508 37.187 110.773 36.1151 111.025 34.7252C111.278 33.3117 111.485 31.6274 111.646 29.6721L111.956 25.9617H125.088V44.5135H120.849Z" fill="#2A292C"/>
<path d="M134.421 35.6793C134.191 35.6793 133.64 35.7029 132.767 35.75V40.4497C133.548 40.4969 134.076 40.5204 134.352 40.5204C136.742 40.5204 137.937 39.6841 137.937 38.0115C137.937 36.4567 136.765 35.6793 134.421 35.6793ZM132.767 25.9617V31.7216C133.295 31.6509 133.962 31.6156 134.766 31.6156C137.316 31.6156 139.224 32.1692 140.487 33.2764C141.774 34.3836 142.417 35.9267 142.417 37.9055C142.417 39.9315 141.659 41.557 140.143 42.782C138.649 43.9834 136.547 44.5841 133.835 44.5841C133.1 44.5841 132.112 44.5724 130.871 44.5488C129.653 44.5252 128.883 44.5135 128.562 44.5135V25.9617H132.767Z" fill="#2A292C"/>
<path d="M49.4507 5.08166V0.36883H68.6274V5.08166H61.4312V21.8839H56.6073V5.08166H49.4507Z" fill="#2E5AF0"/>
<path d="M75.0696 13.2779V8.56505H84.5591C83.6892 5.9969 81.4882 4.71283 77.9559 4.71283C75.3727 4.71283 73.3166 5.23192 71.7878 6.27011L69.9294 2.49985C72.0646 0.833283 74.806 0 78.1536 0C81.5541 0 84.3482 1.02453 86.536 3.07358C88.7239 5.12264 89.8178 7.81373 89.8178 11.1469C89.8178 14.5893 88.7107 17.3077 86.4965 19.3021C84.2823 21.2692 81.2905 22.2527 77.521 22.2527C75.9394 22.2527 74.4369 22.0342 73.0135 21.597C71.5901 21.1599 70.4961 20.6272 69.7317 19.9988L71.7878 15.7777C73.4748 16.9525 75.5836 17.5399 78.1141 17.5399C81.7781 17.5399 83.9791 16.1192 84.7172 13.2779H75.0696Z" fill="#2E5AF0"/>
<path d="M92.0726 21.8839V0.36883H96.936L104.369 9.34369L111.407 0.36883H115.994V21.8839H111.17V8.0323L104.369 16.3105H103.697L96.8964 8.15524V21.8839H92.0726Z" fill="#2E5AF0"/>
<path d="M134.627 21.8839V5.08166H124.782V21.8839H119.958V0.36883H139.451V21.8839H134.627Z" fill="#2E5AF0"/>
</svg>
