<svg width="19" height="14" viewBox="0 0 19 14" fill="none" xmlns="http://www.w3.org/2000/svg">
<path d="M17.1 0H1.9C0.855 0 0.00949999 0.7875 0.00949999 1.75L0 12.25C0 13.2125 0.855 14 1.9 14H17.1C18.145 14 19 13.2125 19 12.25V1.75C19 0.7875 18.145 0 17.1 0ZM16.72 3.71875L10.0035 7.58625C9.6995 7.76125 9.3005 7.76125 8.9965 7.58625L2.28 3.71875C2.18474 3.6695 2.10132 3.60295 2.03479 3.52315C1.96827 3.44334 1.92001 3.35193 1.89295 3.25445C1.86588 3.15697 1.86058 3.05544 1.87735 2.95602C1.89412 2.85659 1.93262 2.76134 1.99052 2.67601C2.04842 2.59069 2.12451 2.51707 2.21419 2.45962C2.30387 2.40217 2.40528 2.36207 2.51227 2.34176C2.61926 2.32145 2.72962 2.32135 2.83666 2.34145C2.9437 2.36156 3.04519 2.40147 3.135 2.45875L9.5 6.125L15.865 2.45875C15.9548 2.40147 16.0563 2.36156 16.1633 2.34145C16.2704 2.32135 16.3807 2.32145 16.4877 2.34176C16.5947 2.36207 16.6961 2.40217 16.7858 2.45962C16.8755 2.51707 16.9516 2.59069 17.0095 2.67601C17.0674 2.76134 17.1059 2.85659 17.1227 2.95602C17.1394 3.05544 17.1341 3.15697 17.1071 3.25445C17.08 3.35193 17.0317 3.44334 16.9652 3.52315C16.8987 3.60295 16.8153 3.6695 16.72 3.71875Z" fill="#2E5AF0"/>
</svg>
