<svg width="79" height="79" viewBox="0 0 79 79" fill="none" xmlns="http://www.w3.org/2000/svg">
<path d="M32.5672 31.4529L39.9306 26.1048H44.1161V53.2329H38.3029V34.3595L35.5901 36.2585L32.5672 31.4529Z" fill="#2E5AF0"/>
<path d="M78.6851 39.5C78.6851 61.1413 61.1413 78.6851 39.5 78.6851C17.8587 78.6851 0.314941 61.1413 0.314941 39.5C0.314941 17.8587 17.8587 0.314941 39.5 0.314941C61.1413 0.314941 78.6851 17.8587 78.6851 39.5ZM5.63194 39.5C5.63194 58.2048 20.7952 73.3681 39.5 73.3681C58.2048 73.3681 73.3681 58.2048 73.3681 39.5C73.3681 20.7952 58.2048 5.63194 39.5 5.63194C20.7952 5.63194 5.63194 20.7952 5.63194 39.5Z" fill="#D9D9D9"/>
<path d="M2.97463 39.7949C1.50643 39.8067 0.297207 38.6248 0.384923 37.1592C0.638611 32.9202 1.58009 28.7445 3.17789 24.7973C5.10869 20.0274 7.96009 15.6845 11.5693 12.0166C15.1785 8.34869 19.4748 5.42757 24.2129 3.42004C28.1338 1.75874 32.2937 0.74999 36.5281 0.42792C37.9921 0.316561 39.1934 1.50655 39.2052 2.97475C39.2171 4.44295 38.0346 5.63194 36.5718 5.75888C33.0362 6.06572 29.565 6.9269 26.2872 8.31572C22.192 10.0509 18.4786 12.5756 15.3592 15.7458C12.2397 18.916 9.77523 22.6696 8.10641 26.7923C6.77067 30.0922 5.96563 33.5767 5.71589 37.1169C5.61257 38.5815 4.44283 39.783 2.97463 39.7949Z" fill="#2E5AF0"/>
</svg>
