<svg width="79" height="79" viewBox="0 0 79 79" fill="none" xmlns="http://www.w3.org/2000/svg">
<path d="M29.0351 54.6851V49.2851C29.3051 49.0451 30.0401 48.3401 31.2401 47.1701C32.4701 45.9701 33.2951 45.1451 33.7151 44.6951C34.1351 44.2451 34.8551 43.4951 35.8751 42.4451C36.8951 41.3651 37.6151 40.5101 38.0351 39.8801C38.4551 39.2501 38.9501 38.4851 39.5201 37.5851C40.1201 36.6551 40.5251 35.8001 40.7351 35.0201C40.9751 34.2401 41.0951 33.4601 41.0951 32.6801C41.0951 30.6101 40.1351 29.5751 38.2151 29.5751C37.3151 29.5751 36.6101 29.8751 36.1001 30.4751C35.5901 31.0451 35.1401 31.8701 34.7501 32.9501L29.1251 30.3851C29.6351 28.0751 30.7301 26.2451 32.4101 24.8951C34.1201 23.5151 36.3251 22.8251 39.0251 22.8251C41.9351 22.8251 44.2001 23.6501 45.8201 25.3001C47.4701 26.9501 48.2951 28.9601 48.2951 31.3301C48.2951 37.3001 44.7851 42.9851 37.7651 48.3851H49.3751V54.6851H29.0351Z" fill="#2E5AF0"/>
<path d="M78.3701 39.1851C78.3701 60.8264 60.8264 78.3701 39.1851 78.3701C17.5437 78.3701 0 60.8264 0 39.1851C0 17.5437 17.5437 0 39.1851 0C60.8264 0 78.3701 17.5437 78.3701 39.1851ZM5.317 39.1851C5.317 57.8899 20.4802 73.0531 39.1851 73.0531C57.8899 73.0531 73.0531 57.8899 73.0531 39.1851C73.0531 20.4802 57.8899 5.317 39.1851 5.317C20.4802 5.317 5.317 20.4802 5.317 39.1851Z" fill="#D9D9D9"/>
<path d="M39.1851 75.7121C39.1851 77.1803 37.9934 78.38 36.5286 78.2805C32.2917 77.9926 28.1238 77.0174 24.1896 75.3878C19.4354 73.4186 15.1157 70.5322 11.477 66.8936C7.83837 63.2549 4.95202 58.9352 2.98279 54.181C1.01355 49.4269 -1.93777e-06 44.3314 -1.71283e-06 39.1855C-1.4879e-06 34.0397 1.01355 28.9442 2.98279 24.1901C4.95202 19.4359 7.83837 15.1162 11.477 11.4775C15.1157 7.83885 19.4354 4.9525 24.1896 2.98327C28.1238 1.35367 32.2917 0.378524 36.5286 0.0906346C37.9934 -0.00890263 39.1851 1.19074 39.1851 2.65899C39.1851 4.12724 37.993 5.30664 36.5293 5.42177C32.9912 5.70007 29.5133 6.53321 26.2243 7.89554C22.1153 9.59757 18.3817 12.0923 15.2367 15.2372C12.0918 18.3821 9.59708 22.1157 7.89506 26.2248C6.19302 30.3339 5.317 34.7379 5.317 39.1855C5.317 43.6332 6.19302 48.0372 7.89505 52.1463C9.59708 56.2553 12.0918 59.9889 15.2367 63.1339C18.3817 66.2788 22.1153 68.7735 26.2243 70.4756C29.5133 71.8379 32.9912 72.671 36.5292 72.9493C37.993 73.0645 39.1851 74.2439 39.1851 75.7121Z" fill="#2E5AF0"/>
</svg>
