<svg width="79" height="79" viewBox="0 0 79 79" fill="none" xmlns="http://www.w3.org/2000/svg">
<path d="M38.5301 55.2251C36.0401 55.2251 33.9101 54.7451 32.1401 53.7851C30.3701 52.7951 29.0351 51.5351 28.1351 50.0051L31.8701 45.0101C33.8801 47.3201 35.9501 48.4751 38.0801 48.4751C39.3701 48.4751 40.3451 48.1901 41.0051 47.6201C41.6951 47.0201 42.0401 46.2851 42.0401 45.4151C42.0401 43.1051 40.2551 41.9501 36.6851 41.9501H34.7051V35.2001H36.5051C37.7651 35.2001 38.8001 34.9301 39.6101 34.3901C40.4201 33.8501 40.8251 33.0701 40.8251 32.0501C40.8251 31.3001 40.5851 30.6701 40.1051 30.1601C39.6551 29.6501 38.9351 29.3951 37.9451 29.3951C35.8451 29.3951 34.0301 30.3401 32.5001 32.2301L28.8101 27.3701C30.7601 24.2201 34.0151 22.6451 38.5751 22.6451C41.3651 22.6451 43.6301 23.3801 45.3701 24.8501C47.1401 26.2901 48.0251 28.2401 48.0251 30.7001C48.0251 32.5301 47.6351 34.0451 46.8551 35.2451C46.1051 36.4151 44.9351 37.3601 43.3451 38.0801V38.2151C45.2351 38.5751 46.6901 39.4301 47.7101 40.7801C48.7301 42.1301 49.2401 43.7651 49.2401 45.6851C49.2401 48.5951 48.2201 50.9201 46.1801 52.6601C44.1701 54.3701 41.6201 55.2251 38.5301 55.2251Z" fill="#2E5AF0"/>
<path d="M78.3701 39.1851C78.3701 60.8264 60.8264 78.3701 39.1851 78.3701C17.5437 78.3701 0 60.8264 0 39.1851C0 17.5437 17.5437 0 39.1851 0C60.8264 0 78.3701 17.5437 78.3701 39.1851ZM5.317 39.1851C5.317 57.8899 20.4802 73.0531 39.1851 73.0531C57.8899 73.0531 73.0531 57.8899 73.0531 39.1851C73.0531 20.4802 57.8899 5.317 39.1851 5.317C20.4802 5.317 5.317 20.4802 5.317 39.1851Z" fill="#D9D9D9"/>
<path d="M75.7116 39.1855C77.1799 39.1855 78.3795 40.3773 78.28 41.8421C77.8169 48.6574 75.5784 55.2502 71.7662 60.9556C67.4605 67.3996 61.3407 72.422 54.1805 75.3878C47.0204 78.3536 39.1416 79.1296 31.5404 77.6177C23.9393 76.1057 16.9572 72.3737 11.477 66.8936C5.99691 61.4134 2.26489 54.4313 0.75293 46.8302C-0.759034 39.229 0.0169607 31.3502 2.98279 24.1901C5.94861 17.0299 10.9711 10.9101 17.415 6.60436C23.1204 2.79216 29.7132 0.553682 36.5285 0.0906251C37.9933 -0.0089037 39.1851 1.19074 39.1851 2.65899C39.1851 4.12724 37.9929 5.30664 36.5292 5.42176C30.7666 5.87501 25.1997 7.79748 20.369 11.0253C14.7994 14.7468 10.4584 20.0362 7.89505 26.2248C5.33166 32.4134 4.66096 39.2231 5.96777 45.7929C7.27457 52.3626 10.5002 58.3973 15.2367 63.1339C19.9733 67.8704 26.008 71.096 32.5777 72.4028C39.1475 73.7096 45.9572 73.0389 52.1458 70.4756C58.3344 67.9122 63.6238 63.5712 67.3453 58.0016C70.5731 53.1709 72.4956 47.604 72.9488 41.8414C73.064 40.3777 74.2434 39.1855 75.7116 39.1855Z" fill="#2E5AF0"/>
</svg>
