<svg width="79" height="79" viewBox="0 0 79 79" fill="none" xmlns="http://www.w3.org/2000/svg">
<path d="M41.4451 54.6851V47.9351H27.1351V42.8951L38.3851 23.1851H46.1251L35.8201 41.1851H41.4451V34.4351H48.1951V41.1851H51.8851V47.9351H48.1951V54.6851H41.4451Z" fill="#2E5AF0"/>
<path d="M78.3701 39.1851C78.3701 60.8264 60.8264 78.3701 39.1851 78.3701C17.5437 78.3701 0 60.8264 0 39.1851C0 17.5437 17.5437 0 39.1851 0C60.8264 0 78.3701 17.5437 78.3701 39.1851ZM5.317 39.1851C5.317 57.8899 20.4802 73.0531 39.1851 73.0531C57.8899 73.0531 73.0531 57.8899 73.0531 39.1851C73.0531 20.4802 57.8899 5.317 39.1851 5.317C20.4802 5.317 5.317 20.4802 5.317 39.1851Z" fill="#D9D9D9"/>
<path d="M78.3701 39.1855C78.3701 60.8269 60.8264 78.3706 39.1851 78.3706C17.5437 78.3706 0 60.8269 0 39.1855C0 17.5442 17.5437 0.000488281 39.1851 0.000488281C60.8264 0.000488281 78.3701 17.5442 78.3701 39.1855ZM5.317 39.1855C5.317 57.8904 20.4802 73.0536 39.1851 73.0536C57.8899 73.0536 73.0531 57.8904 73.0531 39.1855C73.0531 20.4807 57.8899 5.31749 39.1851 5.31749C20.4802 5.31749 5.317 20.4807 5.317 39.1855Z" fill="#2E5AF0"/>
</svg>
