<svg width="46" height="42" viewBox="0 0 46 42" fill="none" xmlns="http://www.w3.org/2000/svg">
<path d="M10.3281 27.8571V21.99M10.3281 21.99V15.0515C12.703 14.824 17.3577 15.2335 16.9777 18.6913C16.5977 22.1492 12.3863 22.3312 10.3281 21.99ZM10.3281 21.99H8.42822M8.42822 25.2886H14.3653" stroke="#2E5AF0" stroke-width="2.14284" stroke-linecap="round" stroke-linejoin="round"/>
<circle cx="37.0887" cy="8.30352" r="7.38091" stroke="#2E5AF0" stroke-width="1.84523"/>
<path d="M33.0913 7.56998L36.8448 12.3013L43.5476 3.0752" stroke="white" stroke-width="3.07538" stroke-linecap="round" stroke-linejoin="round"/>
<path d="M33.0913 7.56998L36.8448 12.3013L43.5476 3.0752" stroke="#2E5AF0" stroke-width="1.84523" stroke-linecap="round" stroke-linejoin="round"/>
<path d="M25.5713 7.5H2V33.7498H43.2497V17.7834" stroke="#2E5AF0" stroke-width="2.14284" stroke-linecap="round" stroke-linejoin="round"/>
<path d="M23.9639 20.3569H36.8209" stroke="#2E5AF0" stroke-width="2.14284" stroke-linecap="round" stroke-linejoin="round"/>
<path d="M23.9639 23.5713H36.8209" stroke="#2E5AF0" stroke-width="2.14284" stroke-linecap="round" stroke-linejoin="round"/>
<path d="M23.9639 27.3213H32.5352" stroke="#2E5AF0" stroke-width="2.14284" stroke-linecap="round" stroke-linejoin="round"/>
<path d="M2 36.9639H27.5881H43.2497C43.2497 39.321 41.338 40.446 40.3821 40.7138H5.08822C2.61764 40.7138 2 38.2139 2 36.9639Z" fill="#2E5AF0" stroke="#2E5AF0" stroke-width="2.14284" stroke-linecap="round" stroke-linejoin="round"/>
</svg>
