<svg width="15" height="15" viewBox="0 0 15 15" fill="none" xmlns="http://www.w3.org/2000/svg">
<path fill-rule="evenodd" clip-rule="evenodd" d="M8.67581 14.1183C7.83367 13.8591 5.51249 12.8801 3.66432 9.67981C1.8169 6.47912 2.13008 3.98017 2.32625 3.1205C2.62654 1.81077 3.95759 0.817122 5.23705 0.632619C5.39124 0.609974 5.54866 0.627805 5.69388 0.684362C5.8391 0.740919 5.96712 0.834259 6.06537 0.955223C6.82587 1.89714 7.19877 3.11377 7.53919 4.08303C7.61417 4.29603 7.60816 4.52917 7.52231 4.73802C7.43646 4.94687 7.27677 5.11684 7.07368 5.21554L5.692 5.76262C5.62555 5.7879 5.57054 5.83645 5.53719 5.89923C5.50383 5.96201 5.4944 6.03477 5.51064 6.10398C5.64462 6.64823 5.91958 7.47904 6.30873 8.15306C6.69847 8.82724 7.30533 9.52035 7.73483 9.94689C7.78888 9.99965 7.86108 10.0297 7.9366 10.0309C8.01212 10.032 8.08521 10.0042 8.14085 9.95313L9.1969 9.0124C9.38389 8.86616 9.62022 8.79795 9.85638 8.82205C10.0925 8.84615 10.3102 8.9607 10.4638 9.1417C11.1407 9.93966 11.9388 10.8404 12.4052 11.9396C12.4678 12.088 12.4893 12.2505 12.4676 12.41C12.4459 12.5696 12.3818 12.7204 12.2818 12.8467C11.4784 13.8677 9.96419 14.5148 8.67581 14.1183Z" fill="#2E5AF0"/>
</svg>
