<svg width="11" height="15" viewBox="0 0 11 15" fill="none" xmlns="http://www.w3.org/2000/svg">
<path fill-rule="evenodd" clip-rule="evenodd" d="M6.67581 14.1183C5.83367 13.8591 3.51249 12.8801 1.66432 9.67981C-0.183098 6.47912 0.130082 3.98017 0.326245 3.1205C0.62654 1.81077 1.95759 0.817122 3.23705 0.632619C3.39124 0.609974 3.54866 0.627805 3.69388 0.684362C3.8391 0.740919 3.96712 0.834259 4.06537 0.955223C4.82587 1.89714 5.19877 3.11377 5.53919 4.08303C5.61417 4.29603 5.60816 4.52917 5.52231 4.73802C5.43646 4.94687 5.27677 5.11684 5.07368 5.21554L3.692 5.76262C3.62555 5.7879 3.57054 5.83645 3.53719 5.89923C3.50383 5.96201 3.4944 6.03477 3.51064 6.10398C3.64462 6.64823 3.91958 7.47904 4.30873 8.15306C4.69847 8.82724 5.30533 9.52035 5.73483 9.94689C5.78888 9.99965 5.86108 10.0297 5.9366 10.0309C6.01212 10.032 6.08521 10.0042 6.14085 9.95313L7.1969 9.0124C7.38389 8.86616 7.62022 8.79795 7.85638 8.82205C8.09254 8.84615 8.31021 8.9607 8.46381 9.1417C9.14071 9.93966 9.93883 10.8404 10.4052 11.9396C10.4678 12.088 10.4893 12.2505 10.4676 12.41C10.4459 12.5696 10.3818 12.7204 10.2818 12.8467C9.47837 13.8677 7.96419 14.5148 6.67581 14.1183Z" fill="white"/>
</svg>
