<svg width="64" height="64" viewBox="0 0 64 64" fill="none" xmlns="http://www.w3.org/2000/svg">
<rect x="0.5" y="0.5" width="63" height="63" rx="3.26471" stroke="white"/>
<path d="M48.5973 46.747L36.959 35.3155C39.0227 32.8223 40.0222 29.6576 39.7518 26.4723C39.4814 23.287 37.9617 20.3232 35.5052 18.1902C33.0487 16.0572 29.8421 14.9173 26.5448 15.0047C23.2475 15.0921 20.11 16.4003 17.7776 18.6602C15.4452 20.9202 14.0951 23.9601 14.0048 27.155C13.9146 30.3498 15.0911 33.4568 17.2925 35.8369C19.4939 38.2171 22.5528 39.6895 25.8403 39.9515C29.1277 40.2136 31.9635 39.5654 34.5367 37.5658L46.1321 48.9972C46.2653 49.1274 46.8541 49.2307 47.0287 49.3012C47.2034 49.3717 47.3907 49.408 47.5798 49.408C47.769 49.408 47.9563 49.3717 48.131 49.3012C48.3056 49.2307 48.4641 49.1274 48.5973 48.9972C48.8556 48.7383 49 48.0721 49 47.712C49 47.3519 48.8556 47.0059 48.5973 46.747ZM26.9275 37.2456C24.9435 37.2456 23.004 36.6755 21.3544 35.6075C19.7047 34.5395 18.4189 33.0215 17.6597 31.2454C16.9004 29.4694 16.7018 27.515 17.0888 25.6296C17.4759 23.7442 18.4313 22.0123 19.8342 20.6529C21.2372 19.2936 23.0246 18.3679 24.9705 17.9928C26.9164 17.6178 28.9334 17.8103 30.7664 18.546C32.5994 19.2816 34.1661 20.5274 35.2684 22.1258C36.3707 23.7242 36.959 25.6034 36.959 27.5258C36.959 30.1037 35.9021 32.5759 34.0208 34.3987C32.1396 36.2215 29.588 37.2456 26.9275 37.2456Z" fill="white"/>
<path d="M23.1074 27.5381L26.09 31.3729L31.4162 23.895" stroke="white" stroke-width="3" stroke-linecap="round" stroke-linejoin="round"/>
</svg>
