<svg width="64" height="64" viewBox="0 0 64 64" fill="none" xmlns="http://www.w3.org/2000/svg">
<rect x="0.5" y="0.5" width="63" height="63" rx="3.26471" stroke="white"/>
<path fill-rule="evenodd" clip-rule="evenodd" d="M45.4681 27.5408V22.4029C32.3974 15.0637 14 20.1522 14 32.336C14 45.922 32.3968 49.3145 45.4681 42.7085V37.3266C40.6269 39.0388 32.3968 38.5496 32.3968 32.4334C32.3968 26.3172 39.5804 25.4625 45.4681 27.5408ZM24.3734 34.3861C23.8888 34.3861 23.6465 34.3861 23.1618 34.1442V31.338C23.2723 31.3966 23.4041 31.4829 24.3734 31.4829C25.3424 31.4829 26.554 30.7573 26.554 29.3055C26.554 27.8537 25.3847 27.1281 24.3734 27.1281C23.3765 27.1281 22.1925 28.0957 22.1925 29.3055L22.1388 40.4414C20.8734 40.3927 19.5578 39.6427 19.3193 38.2778L19.3155 28.9386C19.3317 26.4723 21.5566 24.2251 24.2656 24.2251C26.994 24.2251 29.461 26.4025 29.461 29.3574C29.4613 32.312 26.7964 34.3861 24.3734 34.3861Z" fill="white"/>
<path fill-rule="evenodd" clip-rule="evenodd" d="M41.4893 29.5762V32.2378H43.4278V35.3827H47.3041V32.2378H49.0004V29.5762H41.4893Z" fill="white"/>
</svg>
