<svg width="64" height="64" viewBox="0 0 64 64" fill="none" xmlns="http://www.w3.org/2000/svg">
<rect x="0.5" y="0.5" width="63" height="63" rx="3.26471" stroke="white"/>
<path d="M34.3163 15.5726C34.4872 15.6179 34.7059 15.7019 34.7948 15.7601C34.8768 15.8183 36.3192 16.7751 37.9872 17.8872C40.8719 19.8073 41.0292 19.9302 41.2342 20.2664L41.4461 20.6219L41.4667 24.6756L41.4872 28.7228L41.7401 28.7681C41.8836 28.7875 42.1092 28.8715 42.2528 28.9491C42.4647 29.0655 47.4412 32.3563 48.3436 32.9705C48.5145 33.0933 48.699 33.3002 48.8084 33.5136L48.9998 33.8692V39.8042C48.9998 46.2436 49.0203 45.9268 48.6307 46.4052C48.535 46.528 48.2889 46.7091 48.0975 46.8125L47.7352 47H41.1385H34.5419L34.1864 46.8254L33.831 46.6444L33.4755 46.8254L33.1132 47H26.5781C21.2255 47 20.0019 46.9871 19.7763 46.9095C19.5576 46.8384 18.9492 46.3018 16.8848 44.3557C15.1826 42.7524 14.2256 41.802 14.1367 41.6274C14.0068 41.3753 14 41.2072 14 35.673V29.9771L14.1914 29.6344C14.3965 29.253 14.8408 28.9168 15.2851 28.8004C15.4424 28.7616 16.6728 28.7358 18.4228 28.7358C20.0156 28.7358 21.3144 28.7228 21.3144 28.7099C21.3144 28.6905 21.2461 28.5677 21.1572 28.4319L21.0068 28.1862V22.4322V16.6782L21.1572 16.4131C21.2392 16.2709 21.4238 16.051 21.5605 15.9347C22.1005 15.4886 21.6836 15.5144 28.1503 15.5015C32.6894 15.495 34.0634 15.508 34.3163 15.5726ZM29.8593 16.6717C29.8593 16.6846 30.6728 17.2988 31.6708 18.0294L33.4755 19.3612L35.7177 19.3483L37.953 19.3289L36.0116 18.0359C34.9452 17.3247 34.0224 16.7234 33.9608 16.6976C33.8515 16.6523 29.8593 16.6264 29.8593 16.6717ZM23.3652 16.801C23.4609 16.885 24.2265 17.5316 25.0742 18.2298C26.4277 19.3483 26.6327 19.4905 26.7831 19.4517C26.8788 19.4259 27.9521 19.3871 29.1689 19.3677L31.3837 19.3289L29.579 17.9906L27.7743 16.6588L25.4843 16.6523L23.1943 16.6458L23.3652 16.801ZM22.2031 22.6714V27.8565L23.8916 29.4599L25.5869 31.0697L25.6279 25.8458C25.6484 22.9688 25.6826 20.5573 25.6962 20.4862C25.7167 20.3763 25.3954 20.0724 24.0146 18.9216C23.0712 18.1393 22.2851 17.4928 22.2509 17.4928C22.2236 17.4863 22.2031 19.8203 22.2031 22.6714ZM27.0771 20.6801L26.8857 20.8353V26.5699V32.3046L27.0771 32.4597L27.2685 32.6149H33.5028C38.3837 32.6149 39.7713 32.5955 39.9081 32.5309C40.0038 32.4856 40.1131 32.3498 40.161 32.227C40.2225 32.0589 40.243 30.5978 40.243 26.5505C40.2499 20.7577 40.2499 20.7706 39.9286 20.5961C39.8465 20.5508 37.871 20.5314 33.537 20.525H27.2685L27.0771 20.6801ZM41.3915 32.5309C41.3436 32.5955 41.7811 32.6149 43.4764 32.6149C45.5135 32.6149 45.6024 32.6084 45.4451 32.505C45.3494 32.4403 44.4266 31.8326 43.3944 31.1408L41.5145 29.8931L41.4803 31.1732C41.4598 31.8779 41.4188 32.4921 41.3915 32.5309ZM17.9033 31.3283C19.3593 32.5309 19.6465 32.7442 19.7695 32.7054C19.8515 32.6731 21.1572 32.6408 22.6816 32.6343L25.4433 32.6084L24.0146 31.2572L22.5791 29.8995H19.3799H16.1807L17.9033 31.3283ZM16.9394 42.733L18.6484 44.3493V39.1771C18.6484 36.3324 18.6758 33.9144 18.7099 33.811C18.7639 33.6196 18.738 33.5982 17.0837 32.2261C17.061 32.2072 17.038 32.1881 17.0146 32.1688L15.2646 30.7206L15.2441 35.9186L15.2305 41.1167L16.9394 42.733ZM34.6171 33.9791L34.4393 34.1795L34.453 39.8624L34.4735 45.5389L34.6308 45.6876L34.788 45.8363L40.9881 45.8557C44.3993 45.8621 47.2567 45.8557 47.3455 45.8363C47.4276 45.8169 47.5574 45.7457 47.6326 45.6746C47.7694 45.5453 47.7694 45.4354 47.7694 39.8236V34.0954L47.5985 33.9403L47.4344 33.7786H41.1112H34.7948L34.6171 33.9791ZM20.0498 33.9403L19.8789 34.0954V39.7848V45.4742L20.0429 45.6552L20.207 45.8363H26.5439H32.8808L33.0448 45.6552L33.2089 45.4742V39.7848V34.0954L33.038 33.9403L32.8739 33.7786H26.5439H20.2138L20.0498 33.9403Z" fill="white"/>
<path d="M22.2031 22.6714V27.8565L23.8916 29.4599L25.5869 31.0697L25.6279 25.8458C25.6484 22.9688 25.6826 20.5573 25.6962 20.4862C25.7167 20.3763 25.3954 20.0724 24.0146 18.9216C23.0712 18.1393 22.2851 17.4928 22.2509 17.4928C22.2236 17.4863 22.2031 19.8203 22.2031 22.6714Z" fill="white"/>
<path d="M16.9394 42.733L18.6484 44.3493V39.1771C18.6484 36.3324 18.6758 33.9144 18.7099 33.811C18.7639 33.6196 18.738 33.5982 17.0837 32.2261L17.0146 32.1688L15.2646 30.7206L15.2441 35.9186L15.2305 41.1167L16.9394 42.733Z" fill="white"/>
<path d="M41.3915 32.5309C41.3436 32.5955 41.7811 32.6149 43.4764 32.6149C45.5135 32.6149 45.6024 32.6084 45.4451 32.505C45.3494 32.4403 44.4266 31.8326 43.3944 31.1408L41.5145 29.8931L41.4803 31.1732C41.4598 31.8779 41.4188 32.4921 41.3915 32.5309Z" fill="white"/>
</svg>
