<svg width="21" height="20" viewBox="0 0 21 20" fill="none" xmlns="http://www.w3.org/2000/svg">
<path d="M19.7309 17.7419L16.0209 14.1763C17.461 12.4365 18.1584 10.2282 17.9697 8.00546C17.781 5.78275 16.7206 3.71455 15.0064 2.22615C13.2923 0.737747 11.0547 -0.0577378 8.75382 0.00326621C6.45294 0.0642702 4.26362 0.977125 2.63604 2.55413C1.00846 4.13113 0.0663314 6.25242 0.00337096 8.48181C-0.0595894 10.7112 0.761407 12.8792 2.29754 14.5401C3.83368 16.201 5.9682 17.2285 8.2622 17.4113C10.5562 17.5941 12.8353 16.9184 14.6309 15.5231L18.3109 19.0887C18.4039 19.1795 18.5145 19.2516 18.6363 19.3008C18.7582 19.35 18.8889 19.3753 19.0209 19.3753C19.1529 19.3753 19.2836 19.35 19.4055 19.3008C19.5273 19.2516 19.6379 19.1795 19.7309 19.0887C19.9111 18.908 20.0119 18.6666 20.0119 18.4153C20.0119 18.164 19.9111 17.9226 19.7309 17.7419ZM9.0209 15.5231C7.63643 15.5231 6.28305 15.1253 5.13191 14.38C3.98076 13.6347 3.08356 12.5755 2.55374 11.3361C2.02393 10.0968 1.88531 8.73306 2.1554 7.41739C2.4255 6.10172 3.09219 4.89319 4.07115 3.94465C5.05012 2.9961 6.2974 2.35013 7.65527 2.08843C9.01314 1.82672 10.4206 1.96104 11.6997 2.47439C12.9788 2.98774 14.072 3.85707 14.8412 4.97244C15.6104 6.08781 16.0209 7.39914 16.0209 8.74058C16.0209 10.5394 15.2834 12.2646 13.9706 13.5365C12.6579 14.8085 10.8774 15.5231 9.0209 15.5231Z" fill="black"/>
</svg>
