<svg width="115" height="19" viewBox="0 0 115 19" fill="none" xmlns="http://www.w3.org/2000/svg">
<path d="M9.34519 0.457799C9.56634 -0.152598 10.4337 -0.152601 10.6548 0.457799L12.6915 6.07919C12.7882 6.3463 13.039 6.52754 13.3241 6.53662L19.3249 6.72742C19.9765 6.74814 20.2446 7.56912 19.7296 7.96707L14.9875 11.6321C14.7622 11.8062 14.6664 12.0995 14.7459 12.3722L16.4179 18.1115C16.5995 18.7347 15.8978 19.2422 15.3584 18.8777L10.391 15.5214C10.155 15.3619 9.84505 15.3619 9.60901 15.5214L4.64156 18.8777C4.10217 19.2422 3.40049 18.7347 3.58205 18.1115L5.25413 12.3722C5.33358 12.0995 5.23782 11.8062 5.0125 11.6321L0.270351 7.96707C-0.24457 7.56912 0.0234464 6.74814 0.675049 6.72742L6.67591 6.53662C6.96102 6.52754 7.21175 6.3463 7.30851 6.07919L9.34519 0.457799Z" fill="#2E5AF0"/>
<path d="M33.3452 0.457799C33.5663 -0.152598 34.4337 -0.152601 34.6548 0.457799L36.6915 6.07919C36.7882 6.3463 37.039 6.52754 37.3241 6.53662L43.3249 6.72742C43.9765 6.74814 44.2446 7.56912 43.7296 7.96707L38.9875 11.6321C38.7622 11.8062 38.6664 12.0995 38.7459 12.3722L40.4179 18.1115C40.5995 18.7347 39.8978 19.2422 39.3584 18.8777L34.391 15.5214C34.155 15.3619 33.8451 15.3619 33.609 15.5214L28.6416 18.8777C28.1022 19.2422 27.4005 18.7347 27.582 18.1115L29.2541 12.3722C29.3336 12.0995 29.2378 11.8062 29.0125 11.6321L24.2704 7.96707C23.7554 7.56912 24.0234 6.74814 24.675 6.72742L30.6759 6.53662C30.961 6.52754 31.2118 6.3463 31.3085 6.07919L33.3452 0.457799Z" fill="#2E5AF0"/>
<path d="M56.4107 0.457799C56.6097 -0.152598 57.3903 -0.152601 57.5893 0.457799L59.4223 6.07919C59.5094 6.3463 59.7351 6.52754 59.9917 6.53662L65.3924 6.72742C65.9789 6.74814 66.2201 7.56912 65.7567 7.96707L61.4887 11.6321C61.286 11.8062 61.1998 12.0995 61.2713 12.3722L62.7761 18.1115C62.9396 18.7347 62.308 19.2422 61.8226 18.8777L57.3519 15.5214C57.1395 15.3619 56.8605 15.3619 56.6481 15.5214L52.1774 18.8777C51.692 19.2422 51.0604 18.7347 51.2238 18.1115L52.7287 12.3722C52.8002 12.0995 52.714 11.8062 52.5113 11.6321L48.2433 7.96707C47.7799 7.56912 48.0211 6.74814 48.6075 6.72742L54.0083 6.53662C54.2649 6.52754 54.4906 6.3463 54.5777 6.07919L56.4107 0.457799Z" fill="#2E5AF0"/>
<path d="M80.3452 0.457799C80.5663 -0.152598 81.4337 -0.152601 81.6548 0.457799L83.6915 6.07919C83.7882 6.3463 84.039 6.52754 84.3241 6.53662L90.3249 6.72742C90.9765 6.74814 91.2446 7.56912 90.7296 7.96707L85.9875 11.6321C85.7622 11.8062 85.6664 12.0995 85.7459 12.3722L87.4179 18.1115C87.5995 18.7347 86.8978 19.2422 86.3584 18.8777L81.391 15.5214C81.155 15.3619 80.8451 15.3619 80.609 15.5214L75.6416 18.8777C75.1022 19.2422 74.4005 18.7347 74.582 18.1115L76.2541 12.3722C76.3336 12.0995 76.2378 11.8062 76.0125 11.6321L71.2704 7.96707C70.7554 7.56912 71.0234 6.74814 71.675 6.72742L77.6759 6.53662C77.961 6.52754 78.2118 6.3463 78.3085 6.07919L80.3452 0.457799Z" fill="#2E5AF0"/>
<path d="M104.345 0.457799C104.566 -0.152598 105.434 -0.152601 105.655 0.457799L107.691 6.07919C107.788 6.3463 108.039 6.52754 108.324 6.53662L114.325 6.72742C114.977 6.74814 115.245 7.56912 114.73 7.96707L109.987 11.6321C109.762 11.8062 109.666 12.0995 109.746 12.3722L111.418 18.1115C111.6 18.7347 110.898 19.2422 110.358 18.8777L105.391 15.5214C105.155 15.3619 104.845 15.3619 104.609 15.5214L99.6416 18.8777C99.1022 19.2422 98.4005 18.7347 98.582 18.1115L100.254 12.3722C100.334 12.0995 100.238 11.8062 100.013 11.6321L95.2704 7.96707C94.7554 7.56912 95.0234 6.74814 95.675 6.72742L101.676 6.53662C101.961 6.52754 102.212 6.3463 102.309 6.07919L104.345 0.457799Z" fill="url(#paint0_linear_122_5159)"/>
<defs>
<linearGradient id="paint0_linear_122_5159" x1="95" y1="7.125" x2="113.182" y2="7.125" gradientUnits="userSpaceOnUse">
<stop offset="0.550006" stop-color="#2D50CA"/>
<stop offset="0.550106" stop-color="#D9D9D9"/>
<stop offset="1" stop-color="#D9D9D9"/>
</linearGradient>
</defs>
</svg>
