<svg width="219" height="168" viewBox="0 0 219 168" fill="none" xmlns="http://www.w3.org/2000/svg">
<path fill-rule="evenodd" clip-rule="evenodd" d="M80.0278 1L75.6301 23.7723H54.9722V47.6832H71.0125L66.8347 69.3168H47V93.2277H62.2171L57.8194 116H88L92.3977 93.2277H110.62L106.222 116H135.833L140.231 93.2277H162.028V69.3168H144.849L149.026 47.6832H170V23.7723H153.644L158.042 1H128.431L124.033 23.7723H105.811L110.208 1H80.0278ZM97.0153 69.3168L101.193 47.6832H119.415L115.237 69.3168H97.0153Z" fill="#DB3D34"/>
<path d="M47 93.2277V68.7475M47 93.2277H62.2171M47 93.2277V69.3168H66.8347M162.028 93.2277V68.7475M162.028 93.2277V69.3168H144.849M162.028 93.2277H140.231M75.6301 23.7723L80.0278 1H110.208L105.811 23.7723M75.6301 23.7723H54.9722V47.6832H71.0125M75.6301 23.7723H105.811M75.6301 23.7723L71.0125 47.6832M105.811 23.7723H124.033M105.811 23.7723L101.193 47.6832M124.033 23.7723L128.431 1H158.042L153.644 23.7723M124.033 23.7723L119.415 47.6832M124.033 23.7723H153.644M153.644 23.7723H170V47.6832H149.026M153.644 23.7723L149.026 47.6832M149.026 47.6832L144.849 69.3168M149.026 47.6832H119.415M144.849 69.3168H115.237M144.849 69.3168L140.231 93.2277M140.231 93.2277L135.833 116H106.222L110.62 93.2277M140.231 93.2277H110.62M110.62 93.2277H92.3977M110.62 93.2277L115.237 69.3168M92.3977 93.2277L88 116H57.8194L62.2171 93.2277M92.3977 93.2277H62.2171M92.3977 93.2277L97.0153 69.3168M62.2171 93.2277L66.8347 69.3168M66.8347 69.3168L71.0125 47.6832M66.8347 69.3168H97.0153M71.0125 47.6832H101.193M97.0153 69.3168L101.193 47.6832M97.0153 69.3168H115.237M101.193 47.6832H119.415M119.415 47.6832L115.237 69.3168" stroke="#DB3D34"/>
<g clip-path="url(#clip0_149_10368)">
<mask id="mask0_149_10368" style="mask-type:luminance" maskUnits="userSpaceOnUse" x="0" y="145" width="219" height="23">
<path d="M219 145H0V168H219V145Z" fill="white"/>
</mask>
<g mask="url(#mask0_149_10368)">
<path d="M1.36156 148.317H4.39414L5.07492 145H9.8404L9.15962 148.317H11.8209L12.5017 145H17.2671L16.5863 148.317H19L18.8762 151.93H15.9056L15.2867 155.07H17.7003L17.5765 158.683H14.4821L13.8013 162H9.09773L9.77852 158.683H7.11727L6.43649 162H1.67101L2.35179 158.683H0L0.123778 155.07H3.15636L3.77525 151.93H1.36156V148.317ZM7.79806 155.07H10.4593L11.0782 151.93H8.47884L7.79806 155.07Z" fill="#D90002"/>
<path d="M45.015 145L46.6269 151.836L51.1044 145H56L44.8956 162H40L43.403 156.71L40.0597 145H45.015Z" fill="#191826"/>
<path d="M58.3711 145H65.2975C69.2203 145 70.9979 146.308 70.9979 148.566C71.0276 149.541 70.7423 150.501 70.1817 151.311C69.6212 152.121 68.8136 152.741 67.8718 153.084C68.5947 153.238 69.2403 153.63 69.6985 154.193C70.1567 154.757 70.3994 155.457 70.3849 156.175C70.395 156.434 70.3745 156.693 70.3236 156.948C69.7107 159.92 67.3816 162 62.294 162H55L58.3711 145ZM65.4201 156.294C65.4201 155.462 64.7459 155.105 63.3361 155.105H61.252L60.5778 158.374H62.6618C64.2555 158.374 65.0523 157.958 65.3588 156.71C65.4136 156.578 65.4347 156.435 65.4201 156.294ZM66.1557 149.696C66.1557 148.923 65.5427 148.685 64.3168 148.685H62.5392L61.9263 151.598H63.7038C65.1749 151.598 65.8492 151.182 66.0944 150.112C66.1446 149.979 66.1654 149.837 66.1557 149.696Z" fill="#191826"/>
<path d="M85.6204 145L88 162H82.8136L82.5085 159.206H76.5898L75.1864 162H70L79.2746 145H85.6204ZM78.5424 155.343H82.1424L81.5322 149.339L78.5424 155.343Z" fill="#191826"/>
<path d="M97.5224 156.531H95.8507L94.7762 162H90L93.3433 145H99.7911C103.552 145 106 146.427 106 149.399C105.987 149.837 105.947 150.273 105.881 150.706C105.104 154.689 101.821 156.531 97.5224 156.531ZM101.105 150.171C101.105 149.101 100.328 148.685 98.9552 148.685H97.403L96.5672 152.906H98.1194C99.7314 152.906 100.746 152.311 101.045 150.766C101.045 150.587 101.105 150.35 101.105 150.171Z" fill="#191826"/>
<path d="M131.724 148.85H127L127.768 145H142L141.232 148.85H136.508L133.909 162H129.185L131.724 148.85Z" fill="#191826"/>
<path d="M148.495 156.531H146.829L145.759 162H141L144.331 145H150.814C154.561 145 157 146.427 157 149.399C156.987 149.837 156.947 150.273 156.881 150.706C156.048 154.689 152.777 156.531 148.495 156.531ZM152.064 150.171C152.064 149.101 151.29 148.685 149.921 148.685H148.375L147.542 152.906H149.089C150.695 152.906 151.706 152.311 152.003 150.766C152.053 150.572 152.073 150.371 152.064 150.171Z" fill="#191826"/>
<path d="M158 156.311C158 149.743 162.78 145 168.8 145C173.455 145 176 147.676 176 151.75C176 158.257 171.159 163 165.201 163C160.608 163 158 160.385 158 156.311ZM170.911 152.358C170.911 150.23 169.856 148.953 168.056 148.953C165.511 148.953 163.152 151.628 163.152 155.642C163.152 157.709 164.207 158.986 166.007 158.986C168.49 159.047 170.911 156.432 170.911 152.358Z" fill="#191826"/>
<path d="M180.477 145H185.319L183.395 154.273L191.094 145H196L192.523 162H187.679L189.604 152.727L181.904 162H177L180.477 145Z" fill="#191826"/>
<path d="M201.724 148.85H197L197.768 145H212L211.232 148.85H206.508L203.91 162H199.186L201.724 148.85Z" fill="#191826"/>
<path d="M117.949 145C121.619 145 125.228 146.946 124.989 151.689H120.716C120.476 149.682 119.032 149.135 117.167 149.135C114.159 149.135 112.294 151.628 111.753 154.426C111.271 156.98 112.835 158.804 115.363 158.804C116.297 158.844 117.221 158.599 118.015 158.1C118.81 157.601 119.437 156.871 119.814 156.007H124.266C122.642 161.054 118.311 163 114.58 163C110.068 163 106.097 159.899 107.18 153.878C108.263 147.858 113.197 145 117.949 145Z" fill="#191826"/>
<path d="M31.9494 145C35.6194 145 39.2293 146.946 38.9886 151.689H34.717C34.4763 149.682 33.0324 149.135 31.1673 149.135C28.159 149.135 26.2939 151.628 25.7526 154.426C25.2712 156.98 26.8354 158.804 29.3623 158.804C30.2966 158.844 31.2213 158.599 32.0155 158.1C32.8097 157.601 33.4367 156.871 33.8145 156.007H38.2666C36.6422 161.054 32.3104 163 28.5802 163C24.0679 163 20.0971 159.899 21.18 153.878C22.3833 147.797 27.2566 145 31.9494 145Z" fill="#191826"/>
<path d="M215.001 163C216.657 163 218 161.657 218 160C218 158.343 216.657 157 215.001 157C213.343 157 212 158.343 212 160C212 161.657 213.343 163 215.001 163Z" fill="#D90002"/>
</g>
</g>
<defs>
<clipPath id="clip0_149_10368">
<rect width="219" height="23" fill="white" transform="translate(0 145)"/>
</clipPath>
</defs>
</svg>
